<?xml version="1.0" standalone="no"?>
<!DOCTYPE svg PUBLIC "-//W3C//DTD SVG 20010904//EN"
 "http://www.w3.org/TR/2001/REC-SVG-20010904/DTD/svg10.dtd">
<svg version="1.0" xmlns="http://www.w3.org/2000/svg"
 width="974.000000pt" height="974.000000pt" viewBox="0 0 974.000000 974.000000"
 preserveAspectRatio="xMidYMid meet">
<metadata>
Created by potrace 1.14, written by Peter Selinger 2001-2017
</metadata>
<g transform="translate(0.000000,974.000000) scale(0.100000,-0.100000)"
fill="#000000" stroke="none">
<path d="M4838 9042 c-25 -28 -92 -132 -146 -222 -82 -141 -282 -491 -282
-496 0 -2 -148 -259 -328 -571 -181 -313 -409 -707 -507 -878 -98 -170 -228
-395 -288 -500 -61 -104 -210 -363 -332 -575 -122 -212 -702 -1217 -1290
-2235 -587 -1017 -1170 -2028 -1295 -2245 -275 -477 -350 -611 -350 -627 0 -8
27 -13 83 -16 149 -7 9585 -2 9593 5 10 10 225 -364 -2711 4723 -606 1051
-1263 2189 -1460 2530 -545 944 -640 1104 -663 1119 -5 3 -16 -2 -24 -12z"/>
<path d="M3952 7801 c4 -13 18 -16 19 -4 0 4 -5 9 -11 12 -7 2 -11 -2 -8 -8z"/>
<path d="M6885 5771 c-7 -12 12 -24 24 -17 5 4 12 0 14 -6 4 -10 6 -10 6 -1 1
16 -36 36 -44 24z"/>
<path d="M9370 1450 c0 -5 5 -10 11 -10 5 0 7 5 4 10 -3 6 -8 10 -11 10 -2 0
-4 -4 -4 -10z"/>
<path d="M9485 1440 c3 -5 8 -10 11 -10 2 0 4 5 4 10 0 6 -5 10 -11 10 -5 0
-7 -4 -4 -10z"/>
<path d="M9540 1130 c0 -5 5 -10 11 -10 5 0 7 5 4 10 -3 6 -8 10 -11 10 -2 0
-4 -4 -4 -10z"/>
<path d="M9604 1118 c-3 -4 4 -8 15 -8 11 0 22 4 26 9 3 6 -4 9 -16 8 -11 -1
-23 -5 -25 -9z"/>
</g>
</svg>
